<mxfile host="app.diagrams.net" modified="2024-03-05T13:14:31.827Z" agent="Mozilla/5.0 (Windows NT 10.0; Win64; x64) AppleWebKit/537.36 (KHTML, like Gecko) Chrome/122.0.0.0 Safari/537.36" etag="Jb8Hpk098-DGZAw0oW5o" version="23.1.5" type="device">
  <diagram name="PÃ¡gina-1" id="eO6-vMkpp0oPFC7tOvSB">
    <mxGraphModel dx="2552" dy="2462" grid="1" gridSize="10" guides="1" tooltips="1" connect="1" arrows="1" fold="1" page="1" pageScale="1" pageWidth="827" pageHeight="1169" math="0" shadow="0">
      <root>
        <mxCell id="0" />
        <mxCell id="1" parent="0" />
        <mxCell id="rl2Ivr2va-oDCX-Vl3rw-1" value="&lt;font style=&quot;font-size: 40px;&quot;&gt;&lt;font data-font-src=&quot;https://fonts.googleapis.com/css?family=Kalam&quot;&gt;&lt;font face=&quot;Comic Sans MS&quot; style=&quot;&quot;&gt;CommonMain&lt;br&gt;&lt;/font&gt;&lt;font style=&quot;font-family: Kalam; font-weight: bold;&quot; color=&quot;#ff0080&quot;&gt;expect&lt;/font&gt;&lt;/font&gt;&lt;br&gt;&lt;/font&gt;" style="rounded=1;whiteSpace=wrap;html=1;fillColor=#FFD966;strokeColor=#000000;strokeWidth=2;arcSize=20;fillStyle=solid;shadow=0;sketch=1;curveFitting=1;jiggle=2;" vertex="1" parent="1">
          <mxGeometry x="124" y="280" width="580" height="270" as="geometry" />
        </mxCell>
        <mxCell id="rl2Ivr2va-oDCX-Vl3rw-3" value="&lt;font style=&quot;font-size: 40px;&quot;&gt;&lt;font face=&quot;Comic Sans MS&quot;&gt;JVMMain&lt;br&gt;&lt;/font&gt;&lt;b style=&quot;color: rgb(255, 0, 128); font-family: Kalam;&quot;&gt;actual&lt;/b&gt;&lt;br&gt;&lt;/font&gt;" style="rounded=1;whiteSpace=wrap;html=1;fillColor=#FFD966;strokeColor=#36393D;strokeWidth=2;arcSize=20;fillStyle=solid;shadow=0;sketch=1;curveFitting=1;jiggle=2;" vertex="1" parent="1">
          <mxGeometry x="632" y="681" width="280" height="200" as="geometry" />
        </mxCell>
        <mxCell id="rl2Ivr2va-oDCX-Vl3rw-5" value="&lt;font style=&quot;font-size: 40px;&quot;&gt;&lt;font data-font-src=&quot;https://fonts.googleapis.com/css?family=Kalam&quot;&gt;&lt;font face=&quot;Comic Sans MS&quot; style=&quot;&quot;&gt;JsMain&lt;br&gt;&lt;/font&gt;&lt;/font&gt;&lt;font face=&quot;Kalam&quot; color=&quot;#ff0080&quot;&gt;&lt;b&gt;actual&lt;/b&gt;&lt;/font&gt;&lt;br&gt;&lt;/font&gt;" style="rounded=1;whiteSpace=wrap;html=1;fillColor=#FFD966;strokeColor=#000000;strokeWidth=2;arcSize=20;fillStyle=solid;shadow=0;sketch=1;curveFitting=1;jiggle=2;" vertex="1" parent="1">
          <mxGeometry x="-82" y="681" width="280" height="200" as="geometry" />
        </mxCell>
        <mxCell id="rl2Ivr2va-oDCX-Vl3rw-6" value="&lt;font style=&quot;font-size: 40px;&quot;&gt;&lt;font data-font-src=&quot;https://fonts.googleapis.com/css?family=Kalam&quot;&gt;&lt;font face=&quot;Comic Sans MS&quot; style=&quot;&quot;&gt;&amp;lt;platform&amp;gt;Main&lt;br&gt;&lt;/font&gt;&lt;/font&gt;&lt;font face=&quot;Kalam&quot; color=&quot;#ff0080&quot;&gt;&lt;b&gt;actual&lt;/b&gt;&lt;/font&gt;&lt;br&gt;&lt;/font&gt;" style="rounded=1;whiteSpace=wrap;html=1;fillColor=#FFD966;strokeColor=#000000;strokeWidth=2;arcSize=20;fillStyle=solid;shadow=0;sketch=1;curveFitting=1;jiggle=2;" vertex="1" parent="1">
          <mxGeometry x="247" y="681" width="336" height="200" as="geometry" />
        </mxCell>
        <mxCell id="rl2Ivr2va-oDCX-Vl3rw-7" value="&lt;font style=&quot;&quot;&gt;&lt;font style=&quot;font-size: 35px;&quot; face=&quot;Comic Sans MS&quot;&gt;JVM&lt;/font&gt;&lt;br&gt;&lt;/font&gt;" style="rounded=1;whiteSpace=wrap;html=1;fillColor=#FFB366;strokeColor=#36393D;strokeWidth=2;arcSize=20;fillStyle=solid;shadow=0;sketch=1;curveFitting=1;jiggle=2;" vertex="1" parent="1">
          <mxGeometry x="612" y="851" width="120" height="70" as="geometry" />
        </mxCell>
        <mxCell id="rl2Ivr2va-oDCX-Vl3rw-8" value="&lt;font style=&quot;font-size: 40px;&quot;&gt;&lt;font face=&quot;Comic Sans MS&quot;&gt;platform&lt;/font&gt;&lt;br&gt;&lt;/font&gt;" style="rounded=1;whiteSpace=wrap;html=1;fillColor=#FFB366;strokeColor=#36393D;strokeWidth=2;arcSize=20;fillStyle=solid;shadow=0;sketch=1;curveFitting=1;jiggle=2;" vertex="1" parent="1">
          <mxGeometry x="227" y="851" width="190" height="70" as="geometry" />
        </mxCell>
        <mxCell id="rl2Ivr2va-oDCX-Vl3rw-9" value="&lt;font style=&quot;&quot;&gt;&lt;font style=&quot;font-size: 35px;&quot; face=&quot;Comic Sans MS&quot;&gt;JS&lt;/font&gt;&lt;br&gt;&lt;/font&gt;" style="rounded=1;whiteSpace=wrap;html=1;fillColor=#FFB366;strokeColor=#36393D;strokeWidth=2;arcSize=20;fillStyle=solid;shadow=0;sketch=1;curveFitting=1;jiggle=2;" vertex="1" parent="1">
          <mxGeometry x="-108" y="851" width="120" height="70" as="geometry" />
        </mxCell>
        <mxCell id="rl2Ivr2va-oDCX-Vl3rw-10" value="&lt;font style=&quot;&quot;&gt;&lt;font style=&quot;font-size: 40px;&quot; face=&quot;Comic Sans MS&quot;&gt;JVM&lt;/font&gt;&lt;br&gt;&lt;/font&gt;" style="rounded=1;whiteSpace=wrap;html=1;fillColor=#FFB366;strokeColor=#36393D;strokeWidth=2;arcSize=20;fillStyle=solid;shadow=0;sketch=1;curveFitting=1;jiggle=2;" vertex="1" parent="1">
          <mxGeometry x="463" y="-160" width="190" height="80" as="geometry" />
        </mxCell>
        <mxCell id="rl2Ivr2va-oDCX-Vl3rw-12" value="&lt;font style=&quot;&quot;&gt;&lt;font style=&quot;font-size: 40px;&quot; face=&quot;Comic Sans MS&quot;&gt;JS&lt;/font&gt;&lt;br&gt;&lt;/font&gt;" style="rounded=1;whiteSpace=wrap;html=1;fillColor=#FFB366;strokeColor=#36393D;strokeWidth=2;arcSize=20;fillStyle=solid;shadow=0;sketch=1;curveFitting=1;jiggle=2;" vertex="1" parent="1">
          <mxGeometry x="174" y="-160" width="190" height="80" as="geometry" />
        </mxCell>
        <mxCell id="rl2Ivr2va-oDCX-Vl3rw-13" value="&lt;font style=&quot;font-size: 40px;&quot;&gt;&lt;font face=&quot;Comic Sans MS&quot;&gt;Standard Kotlin &lt;br&gt;Library&lt;/font&gt;&lt;br&gt;&lt;/font&gt;" style="rounded=1;whiteSpace=wrap;html=1;fillColor=#FFE68A;strokeColor=#000000;strokeWidth=2;arcSize=20;fillStyle=solid;shadow=0;sketch=1;curveFitting=1;jiggle=2;" vertex="1" parent="1">
          <mxGeometry x="827" y="306.25" width="420" height="145" as="geometry" />
        </mxCell>
        <mxCell id="rl2Ivr2va-oDCX-Vl3rw-15" value="&lt;font style=&quot;font-size: 40px;&quot;&gt;&lt;font face=&quot;Comic Sans MS&quot;&gt;Kotlinx&lt;/font&gt;&lt;br&gt;&lt;/font&gt;" style="rounded=1;whiteSpace=wrap;html=1;fillColor=#D79B00;strokeColor=#000000;strokeWidth=2;arcSize=20;fillStyle=solid;shadow=0;sketch=1;curveFitting=1;jiggle=2;" vertex="1" parent="1">
          <mxGeometry x="827" y="451.25" width="420" height="72.5" as="geometry" />
        </mxCell>
        <mxCell id="rl2Ivr2va-oDCX-Vl3rw-16" value="&lt;font style=&quot;&quot;&gt;&lt;font color=&quot;#000000&quot; face=&quot;Comic Sans MS&quot;&gt;&lt;span style=&quot;font-size: 40px;&quot;&gt;Adapter&lt;/span&gt;&lt;/font&gt;&lt;br&gt;&lt;/font&gt;" style="rounded=1;whiteSpace=wrap;html=1;fillColor=#F19C99;strokeColor=#000000;strokeWidth=2;arcSize=20;fillStyle=solid;shadow=0;sketch=1;curveFitting=1;jiggle=2;fontColor=#ffffff;" vertex="1" parent="1">
          <mxGeometry x="144" y="40" width="248" height="110" as="geometry" />
        </mxCell>
        <mxCell id="rl2Ivr2va-oDCX-Vl3rw-17" value="" style="endArrow=classic;html=1;rounded=0;strokeWidth=6;exitX=0.5;exitY=1;exitDx=0;exitDy=0;entryX=0.5;entryY=0;entryDx=0;entryDy=0;targetPerimeterSpacing=0;" edge="1" parent="1" source="rl2Ivr2va-oDCX-Vl3rw-12" target="rl2Ivr2va-oDCX-Vl3rw-16">
          <mxGeometry width="50" height="50" relative="1" as="geometry">
            <mxPoint x="340" y="-20" as="sourcePoint" />
            <mxPoint x="270" y="70" as="targetPoint" />
          </mxGeometry>
        </mxCell>
        <mxCell id="rl2Ivr2va-oDCX-Vl3rw-18" value="" style="endArrow=classic;html=1;rounded=0;strokeWidth=6;exitX=0.5;exitY=1;exitDx=0;exitDy=0;entryX=0.75;entryY=0;entryDx=0;entryDy=0;targetPerimeterSpacing=0;" edge="1" parent="1" source="rl2Ivr2va-oDCX-Vl3rw-10" target="rl2Ivr2va-oDCX-Vl3rw-1">
          <mxGeometry width="50" height="50" relative="1" as="geometry">
            <mxPoint x="611" as="sourcePoint" />
            <mxPoint x="611" y="163" as="targetPoint" />
          </mxGeometry>
        </mxCell>
        <mxCell id="rl2Ivr2va-oDCX-Vl3rw-19" value="" style="endArrow=classic;html=1;rounded=0;strokeWidth=6;exitX=0.5;exitY=1;exitDx=0;exitDy=0;entryX=0.25;entryY=0;entryDx=0;entryDy=0;targetPerimeterSpacing=0;" edge="1" parent="1" source="rl2Ivr2va-oDCX-Vl3rw-16" target="rl2Ivr2va-oDCX-Vl3rw-1">
          <mxGeometry width="50" height="50" relative="1" as="geometry">
            <mxPoint x="558" y="-80" as="sourcePoint" />
            <mxPoint x="559" y="280" as="targetPoint" />
          </mxGeometry>
        </mxCell>
        <mxCell id="rl2Ivr2va-oDCX-Vl3rw-20" value="" style="endArrow=classic;html=1;rounded=0;strokeWidth=6;exitX=1;exitY=0.5;exitDx=0;exitDy=0;entryX=0;entryY=0.75;entryDx=0;entryDy=0;targetPerimeterSpacing=0;" edge="1" parent="1" source="rl2Ivr2va-oDCX-Vl3rw-1" target="rl2Ivr2va-oDCX-Vl3rw-13">
          <mxGeometry width="50" height="50" relative="1" as="geometry">
            <mxPoint x="568" y="-70" as="sourcePoint" />
            <mxPoint x="569" y="290" as="targetPoint" />
          </mxGeometry>
        </mxCell>
        <mxCell id="rl2Ivr2va-oDCX-Vl3rw-21" value="" style="endArrow=classic;html=1;rounded=0;strokeWidth=6;exitX=0.75;exitY=1;exitDx=0;exitDy=0;entryX=0.5;entryY=0;entryDx=0;entryDy=0;targetPerimeterSpacing=0;edgeStyle=orthogonalEdgeStyle;curved=1;" edge="1" parent="1" source="rl2Ivr2va-oDCX-Vl3rw-1" target="rl2Ivr2va-oDCX-Vl3rw-3">
          <mxGeometry width="50" height="50" relative="1" as="geometry">
            <mxPoint x="714" y="425" as="sourcePoint" />
            <mxPoint x="837" y="425" as="targetPoint" />
          </mxGeometry>
        </mxCell>
        <mxCell id="rl2Ivr2va-oDCX-Vl3rw-22" value="" style="endArrow=classic;html=1;rounded=0;strokeWidth=6;exitX=0.5;exitY=1;exitDx=0;exitDy=0;targetPerimeterSpacing=0;entryX=0.5;entryY=0;entryDx=0;entryDy=0;" edge="1" parent="1" source="rl2Ivr2va-oDCX-Vl3rw-1" target="rl2Ivr2va-oDCX-Vl3rw-6">
          <mxGeometry width="50" height="50" relative="1" as="geometry">
            <mxPoint x="569" y="560" as="sourcePoint" />
            <mxPoint x="450" y="690" as="targetPoint" />
          </mxGeometry>
        </mxCell>
        <mxCell id="rl2Ivr2va-oDCX-Vl3rw-23" value="" style="endArrow=classic;html=1;rounded=0;strokeWidth=6;exitX=0.25;exitY=1;exitDx=0;exitDy=0;entryX=0.5;entryY=0;entryDx=0;entryDy=0;targetPerimeterSpacing=0;edgeStyle=orthogonalEdgeStyle;curved=1;" edge="1" parent="1" source="rl2Ivr2va-oDCX-Vl3rw-1" target="rl2Ivr2va-oDCX-Vl3rw-5">
          <mxGeometry width="50" height="50" relative="1" as="geometry">
            <mxPoint x="569" y="560" as="sourcePoint" />
            <mxPoint x="811" y="691" as="targetPoint" />
          </mxGeometry>
        </mxCell>
        <mxCell id="rl2Ivr2va-oDCX-Vl3rw-24" value="" style="endArrow=classic;html=1;rounded=0;strokeWidth=6;entryX=0;entryY=0.5;entryDx=0;entryDy=0;targetPerimeterSpacing=0;edgeStyle=orthogonalEdgeStyle;exitX=0.25;exitY=0;exitDx=0;exitDy=0;" edge="1" parent="1" source="rl2Ivr2va-oDCX-Vl3rw-5" target="rl2Ivr2va-oDCX-Vl3rw-16">
          <mxGeometry width="50" height="50" relative="1" as="geometry">
            <mxPoint x="-170" y="260" as="sourcePoint" />
            <mxPoint x="68" y="691" as="targetPoint" />
          </mxGeometry>
        </mxCell>
      </root>
    </mxGraphModel>
  </diagram>
</mxfile>
